<?xml version="1.0" encoding="UTF-8" standalone="no"?>
<!-- Generator: Adobe Illustrator 21.0.0, SVG Export Plug-In . SVG Version: 6.00 Build 0)  -->

<svg
   version="1.1"
   id="Layer_1"
   x="0px"
   y="0px"
   viewBox="0 0 267.60001 296.39999"
   xml:space="preserve"
   sodipodi:docname="por.svg"
   width="267.60001"
   height="296.39999"
   inkscape:version="1.1.2 (b8e25be8, 2022-02-05)"
   xmlns:inkscape="http://www.inkscape.org/namespaces/inkscape"
   xmlns:sodipodi="http://sodipodi.sourceforge.net/DTD/sodipodi-0.dtd"
   xmlns="http://www.w3.org/2000/svg"
   xmlns:svg="http://www.w3.org/2000/svg"><defs
   id="defs15" /><sodipodi:namedview
   id="namedview13"
   pagecolor="#ffffff"
   bordercolor="#666666"
   borderopacity="1.0"
   inkscape:pageshadow="2"
   inkscape:pageopacity="0.0"
   inkscape:pagecheckerboard="0"
   showgrid="false"
   inkscape:zoom="1.535"
   inkscape:cx="134.52769"
   inkscape:cy="148.5342"
   inkscape:window-width="1296"
   inkscape:window-height="969"
   inkscape:window-x="0"
   inkscape:window-y="25"
   inkscape:window-maximized="0"
   inkscape:current-layer="Layer_1" />
<style
   type="text/css"
   id="style2">
	.st0{fill:#FFFFFF;}
	.st1{fill:#CF0A2C;}
</style>
<g
   id="g10"
   transform="translate(-65.4,-51.7)">
	<path
   d="m 300.9,131.4 c -4.4,-6.5 -9.4,-12.6 -15,-18.2 -2.4,-2.4 -4.9,-4.7 -7.5,-6.9 L 333,51.7 H 174 l -61.4,61.4 v 0 c 0,0 -0.1,0.1 -0.1,0.1 -5.5,5.6 -10.6,11.7 -15,18.2 -4.4,6.6 -8.2,13.6 -11.3,20.8 -6.4,15.1 -9.6,31.2 -9.6,47.7 0,16.6 3.2,32.6 9.6,47.7 3.1,7.3 6.9,14.3 11.3,20.8 4.4,6.5 9.4,12.6 15,18.2 2.4,2.4 4.9,4.7 7.5,6.9 l -54.6,54.6 h 159 L 286,286.5 v 0 c 5.5,-5.5 10.5,-11.6 14.9,-18 4.4,-6.6 8.2,-13.6 11.3,-20.8 6.4,-15.1 9.6,-31.2 9.6,-47.7 0,-16.6 -3.2,-32.6 -9.6,-47.7 -3.1,-7.3 -6.9,-14.4 -11.3,-20.9"
   id="path4" />
	<path
   class="st0"
   d="m 278.8,120.3 c -2.4,-2.4 -4.9,-4.7 -7.4,-6.8 l -66.7,66.7 c 3.3,0.9 6.4,2.7 9,5.3 v 0 c 8.1,8.1 8.1,21.1 0,29.2 L 89.9,338.3 h 14.5 L 220.8,221.9 c 12,-12 12.1,-31.5 0.1,-43.6 l 7.2,-7.2 c 16,16.1 15.9,42 -0.1,58 L 118.9,338.3 h 14.5 L 235.3,236.4 c 20,-20 20.1,-52.5 0.1,-72.5 l 7.2,-7.2 c 24,24.1 23.9,63 -0.1,87 l -94.7,94.7 h 14.5 L 249.7,251 c 28,-28 28.1,-73.4 0.1,-101.5 l 7.2,-7.2 c 31.9,32.1 31.9,84 -0.1,116 l -80.2,80.2 h 14.5 l 72.9,-72.9 c 36,-36 36.1,-94.4 0.1,-130.5 l 7.3,-7.3 c 40,40.1 39.9,105 -0.1,145 l -65.6,65.6 h 14.5 L 278.7,280 v 0 c 44.1,-44.2 44.1,-115.6 0.1,-159.7"
   id="path6" />
	<path
   class="st1"
   d="m 119.7,279.7 c 2.4,2.4 4.9,4.7 7.4,6.8 l 66.7,-66.7 c -3.3,-0.9 -6.4,-2.7 -9,-5.3 v 0 c -8.1,-8.1 -8.1,-21.1 0,-29.2 L 308.7,61.6 H 294.2 L 177.7,178.1 c -12,12 -12.1,31.5 -0.1,43.6 l -7.2,7.2 c -15.9,-16.1 -15.9,-42 0.1,-58 L 279.8,61.6 h -14.5 l -102.1,102 c -20,20 -20.1,52.5 -0.1,72.5 l -7.2,7.2 c -24,-24.1 -23.9,-63 0.1,-87 l 94.8,-94.8 h -14.5 l -87.6,87.6 c -28,28 -28.1,73.4 -0.1,101.5 l -7.2,7.2 c -31.9,-32.1 -31.9,-84 0.1,-116 l 80.3,-80.3 h -14.5 l -73.1,73.1 c -36,36 -36.1,94.4 -0.1,130.5 l -7.3,7.3 c -40,-40.1 -39.9,-105 0.1,-145 l 65.8,-65.8 h -14.5 l -58.6,58.6 v 0 c -43.9,44 -43.9,115.5 0.1,159.5"
   id="path8" />
</g>
</svg>
